<svg width="24" height="24" viewBox="0 0 24 24" fill="none" xmlns="http://www.w3.org/2000/svg">
<circle cx="12" cy="12" r="12" fill="white"/>
<path fill-rule="evenodd" clip-rule="evenodd" d="M15.9174 16.7568C14.3331 18.5411 11.7951 19.399 9.46129 19.1318L9.29865 17.583C9.27653 17.3723 9.34988 17.1618 9.50535 16.9898L14.4163 11.5568C14.4334 11.5379 14.4483 11.5178 14.461 11.4969L15.1082 10.4284C15.3103 10.0948 14.7284 9.82377 14.4621 10.1275L11.4413 12.7938L11.3394 12.7259C11.1225 12.5814 10.9675 12.3698 10.91 12.1396L10.5 10.4999C10.4529 10.3585 10.2298 10.378 10.2537 10.5214L10.5002 11.9998L10.7757 13.3777L8.48068 15.3382L5.7018 17.3497C4.04937 15.5855 4.03342 12.9436 5.86041 10.8861C6.77729 9.85352 8.4961 9.36335 10.4607 8.8031C13.2056 8.02032 16.4302 7.10072 18.6177 4.37375C19.1627 5.9413 18.1154 14.2816 15.9174 16.7568Z" fill="#46F18E"/>
</svg>
